<svg width="703" height="703" viewBox="0 0 703 703" fill="none" xmlns="http://www.w3.org/2000/svg">
<path d="M564.79 610.57C587.286 594.697 605.709 573.731 618.556 549.38C698.923 398.812 680.771 176.79 525.999 81.5621C454.461 37.5543 351.5 9.7014 274.17 54.9043C211.462 91.5587 173.022 160.579 141.219 223.371C121.239 262.922 104.775 305.369 80.142 342.319C48.1977 390.235 13.0336 454.236 48.5351 509.914C96.9156 585.754 188.292 620.383 271.147 643.189C361.047 667.92 462.138 671.435 545.176 623.181C551.897 619.273 558.435 615.069 564.79 610.57Z" fill="#6A9C89"/>
<path opacity="0.7" d="M564.79 610.57C587.286 594.697 605.709 573.731 618.556 549.38C698.923 398.812 680.771 176.79 525.999 81.5621C454.461 37.5543 351.5 9.7014 274.17 54.9043C211.462 91.5587 173.022 160.579 141.219 223.371C121.239 262.922 104.775 305.369 80.142 342.319C48.1977 390.235 13.0336 454.236 48.5351 509.914C96.9156 585.754 188.292 620.383 271.147 643.189C361.047 667.92 462.138 671.435 545.176 623.181C551.897 619.273 558.435 615.069 564.79 610.57Z" fill="white"/>
<g opacity="0.3">
<path d="M635.512 113.141H490.694V303.33H635.512V113.141Z" stroke="black" stroke-miterlimit="10"/>
<path d="M608.939 148.038H517.267V268.433H608.939V148.038Z" stroke="black" stroke-miterlimit="10"/>
</g>
<path d="M456.767 91.8262H73.351V433.119H456.767V91.8262Z" fill="#263238" stroke="#263238" stroke-miterlimit="10"/>
<path d="M449.498 83.5166H66.082V424.809H449.498V83.5166Z" fill="white" stroke="#263238" stroke-linecap="round" stroke-linejoin="round"/>
<path d="M374.84 221.249H393.905V202.183H374.84V221.249Z" fill="white" stroke="#263238" stroke-linecap="round" stroke-linejoin="round"/>
<path d="M399.796 221.249H418.861V202.183H399.796V221.249Z" fill="white" stroke="#263238" stroke-linecap="round" stroke-linejoin="round"/>
<path d="M367.219 212.869H270.36" stroke="#263238" stroke-linecap="round" stroke-linejoin="round"/>
<path d="M374.84 266.254H393.905V247.189H374.84V266.254Z" fill="white" stroke="#263238" stroke-linecap="round" stroke-linejoin="round"/>
<path d="M399.796 266.254H418.861V247.189H399.796V266.254Z" fill="white" stroke="#263238" stroke-linecap="round" stroke-linejoin="round"/>
<path d="M367.219 257.86H270.36" stroke="#263238" stroke-linecap="round" stroke-linejoin="round"/>
<path d="M374.84 311.261H393.905V292.195H374.84V311.261Z" fill="white" stroke="#263238" stroke-linecap="round" stroke-linejoin="round"/>
<path d="M399.796 311.261H418.861V292.195H399.796V311.261Z" fill="white" stroke="#263238" stroke-linecap="round" stroke-linejoin="round"/>
<path d="M367.219 302.867H270.36" stroke="#263238" stroke-linecap="round" stroke-linejoin="round"/>
<path d="M192.566 221.249H211.631V202.183H192.566V221.249Z" fill="white" stroke="#263238" stroke-linecap="round" stroke-linejoin="round"/>
<path d="M217.536 221.249H236.602V202.183H217.536V221.249Z" fill="white" stroke="#263238" stroke-linecap="round" stroke-linejoin="round"/>
<path d="M184.945 212.869H88.0859" stroke="#263238" stroke-linecap="round" stroke-linejoin="round"/>
<path d="M192.566 266.254H211.631V247.189H192.566V266.254Z" fill="white" stroke="#263238" stroke-linecap="round" stroke-linejoin="round"/>
<path d="M217.536 266.254H236.602V247.189H217.536V266.254Z" fill="white" stroke="#263238" stroke-linecap="round" stroke-linejoin="round"/>
<path d="M184.945 257.86H88.0859" stroke="#263238" stroke-linecap="round" stroke-linejoin="round"/>
<path d="M192.566 311.261H211.631V292.195H192.566V311.261Z" fill="white" stroke="#263238" stroke-linecap="round" stroke-linejoin="round"/>
<path d="M217.536 311.261H236.602V292.195H217.536V311.261Z" fill="white" stroke="#263238" stroke-linecap="round" stroke-linejoin="round"/>
<path d="M184.945 302.867H88.0859" stroke="#263238" stroke-linecap="round" stroke-linejoin="round"/>
<path d="M115.109 376.808H94.1036V397.814H115.109V376.808Z" fill="white" stroke="#263238" stroke-linecap="round" stroke-linejoin="round"/>
<path d="M200.833 376.808H179.827V397.814H200.833V376.808Z" fill="white" stroke="#263238" stroke-linecap="round" stroke-linejoin="round"/>
<path d="M289.959 376.808H268.954V397.814H289.959V376.808Z" fill="white" stroke="#263238" stroke-linecap="round" stroke-linejoin="round"/>
<path d="M223.793 208.566L227.041 215.09L242.774 199.891" stroke="#263238" stroke-width="2" stroke-linecap="round" stroke-linejoin="round"/>
<path d="M223.793 253.066L227.041 259.576L242.774 244.377" stroke="#263238" stroke-width="2" stroke-linecap="round" stroke-linejoin="round"/>
<path d="M196.657 299.731L199.919 306.241L215.652 291.042" stroke="#263238" stroke-width="2" stroke-linecap="round" stroke-linejoin="round"/>
<path d="M405.012 208.032L408.26 214.542L423.993 199.343" stroke="#263238" stroke-width="2" stroke-linecap="round" stroke-linejoin="round"/>
<path d="M378.748 253.6L381.996 260.11L397.729 244.925" stroke="#263238" stroke-width="2" stroke-linecap="round" stroke-linejoin="round"/>
<path d="M378.748 299.323L381.996 305.833L397.729 290.648" stroke="#263238" stroke-width="2" stroke-linecap="round" stroke-linejoin="round"/>
<path d="M449.498 83.5166H66.082V136.832H449.498V83.5166Z" fill="#6A9C89" stroke="#263238" stroke-linecap="round" stroke-linejoin="round"/>
<path d="M449.498 83.5166H435.059V424.809H449.498V83.5166Z" fill="#DBDBDB" stroke="#263238" stroke-linecap="round" stroke-linejoin="round"/>
<path d="M449.498 134.808H435.059V200.679H449.498V134.808Z" fill="#949494" stroke="#263238" stroke-linecap="round" stroke-linejoin="round"/>
<path d="M449.498 83.5166H66.082V109.443H449.498V83.5166Z" fill="#DBDBDB" stroke="#263238" stroke-linecap="round" stroke-linejoin="round"/>
<path d="M236.728 91.0669H85.527V101.865H236.728V91.0669Z" fill="white" stroke="#263238" stroke-linecap="round" stroke-linejoin="round"/>
<path d="M426.862 91.5728H440.134" stroke="#263238" stroke-linecap="round" stroke-linejoin="round"/>
<path d="M426.862 97.1831H440.134" stroke="#263238" stroke-linecap="round" stroke-linejoin="round"/>
<path d="M426.862 102.807H440.134" stroke="#263238" stroke-linecap="round" stroke-linejoin="round"/>
<path d="M200.018 158.4C200.018 155.068 201.775 153.17 204.981 153.17C208.186 153.17 209.93 155.068 209.93 158.4V169.198C209.93 172.516 208.186 174.415 204.981 174.415C201.775 174.415 200.018 172.516 200.018 169.198V158.4ZM203.294 169.409C203.294 170.886 203.94 171.448 204.981 171.448C206.021 171.448 206.668 170.886 206.668 169.409V158.161C206.668 156.671 206.021 156.108 204.981 156.108C203.94 156.108 203.294 156.671 203.294 158.161V169.409Z" fill="#263238"/>
<path d="M214.949 159.145V174.175H212.011V153.409H216.102L219.463 165.838V153.409H222.373V174.175H219.013L214.949 159.145Z" fill="#263238"/>
<path d="M224.707 153.409H227.983V171.209H233.396V174.175H224.749L224.707 153.409Z" fill="#263238"/>
<path d="M234.802 153.409H238.064V174.175H234.802V153.409Z" fill="#263238"/>
<path d="M243.322 159.145V174.175H240.426V153.409H244.517L247.878 165.838V153.409H250.774V174.175H247.456L243.322 159.145Z" fill="#263238"/>
<path d="M256.342 162.168H260.827V165.135H256.342V171.209H261.966V174.175H253.08V153.409H261.98V156.375H256.356L256.342 162.168Z" fill="#263238"/>
<path d="M267.66 153.409H277.741V156.375H274.325V174.175H271.063V156.375H267.66V153.409Z" fill="#263238"/>
<path d="M282.437 162.168H286.908V165.135H282.437V171.209H288.061V174.175H279.161V153.409H288.061V156.375H282.437V162.168Z" fill="#263238"/>
<path d="M294.473 153.17C297.65 153.17 299.281 155.068 299.281 158.4V159.047H296.202V158.189C296.202 156.699 295.611 156.137 294.571 156.137C293.531 156.137 292.94 156.699 292.94 158.189C292.94 162.407 299.309 163.265 299.309 169.198C299.309 172.516 297.65 174.415 294.445 174.415C291.239 174.415 289.636 172.516 289.636 169.198V167.919H292.729V169.409C292.729 170.886 293.376 171.42 294.416 171.42C295.457 171.42 296.104 170.886 296.104 169.409C296.104 165.191 289.734 164.334 289.734 158.4C289.636 155.068 291.309 153.17 294.473 153.17Z" fill="#263238"/>
<path d="M300.237 153.409H310.318V156.375H306.916V174.175H303.696V156.375H300.279L300.237 153.409Z" fill="#263238"/>
<path d="M110.455 371.747H107.151L106.589 367.979H102.638L102.076 371.747H99.0246L102.343 350.98H107.123L110.455 371.747ZM103.004 365.152H106.153L104.578 354.65L103.004 365.152Z" fill="#263238"/>
<path d="M194.801 355.718V356.449C194.801 358.586 194.155 359.95 192.692 360.667C194.45 361.342 195.125 362.917 195.125 365.11V366.812C195.125 370.017 193.437 371.733 190.176 371.733H185.044V350.98H189.965C193.353 350.98 194.801 352.555 194.801 355.718ZM188.306 353.904V359.388H189.585C190.794 359.388 191.539 358.854 191.539 357.194V356.042C191.539 354.551 191.033 353.904 189.88 353.904H188.306ZM188.306 362.34V368.724H190.176C191.272 368.724 191.863 368.218 191.863 366.671V364.871C191.863 362.931 191.244 362.34 189.768 362.34H188.306Z" fill="#263238"/>
<path d="M284.771 364V366.812C284.771 370.144 283.112 372.042 279.906 372.042C276.701 372.042 275.042 370.144 275.042 366.812V356.014C275.042 352.695 276.701 350.797 279.906 350.797C283.112 350.797 284.771 352.695 284.771 356.014V358.038H281.692V355.718C281.692 354.228 281.031 353.666 279.991 353.666C278.95 353.666 278.304 354.228 278.304 355.718V366.966C278.304 368.457 278.964 368.991 279.991 368.991C281.017 368.991 281.692 368.457 281.692 366.966V364H284.771Z" fill="#263238"/>
<path d="M89.5622 339.915H338.776" stroke="#263238" stroke-linecap="round" stroke-linejoin="round"/>
<path opacity="0.3" d="M498.891 85.1895H526.406V57.674H498.891V85.1895Z" stroke="black" stroke-linecap="round" stroke-linejoin="round"/>
<path opacity="0.3" d="M534.927 85.1895H562.442V57.674H534.927V85.1895Z" stroke="black" stroke-linecap="round" stroke-linejoin="round"/>
<path opacity="0.3" d="M504.81 68.5568L509.506 77.9489L523.313 62.75" stroke="black" stroke-width="2" stroke-linecap="round" stroke-linejoin="round"/>
<path opacity="0.3" d="M82.3635 488.88H109.879V461.365H82.3635V488.88Z" stroke="black" stroke-linecap="round" stroke-linejoin="round"/>
<path opacity="0.3" d="M118.385 488.88H145.901V461.365H118.385V488.88Z" stroke="black" stroke-linecap="round" stroke-linejoin="round"/>
<path opacity="0.3" d="M88.2546 472.247L92.9507 481.639L106.758 466.44" stroke="black" stroke-width="2" stroke-linecap="round" stroke-linejoin="round"/>
<path opacity="0.3" d="M212.714 488.88H240.229V461.365H212.714V488.88Z" stroke="black" stroke-linecap="round" stroke-linejoin="round"/>
<path opacity="0.3" d="M248.75 488.88H276.265V461.365H248.75V488.88Z" stroke="black" stroke-linecap="round" stroke-linejoin="round"/>
<path opacity="0.3" d="M218.619 472.247L223.315 481.639L237.122 466.44" stroke="black" stroke-width="2" stroke-linecap="round" stroke-linejoin="round"/>
<g opacity="0.3">
<path d="M255.387 71.4363C265.015 69.8803 271.559 60.8138 270.003 51.1858C268.447 41.5577 259.38 35.0139 249.752 36.5699C240.124 38.1259 233.58 47.1923 235.136 56.8204C236.692 66.4485 245.759 72.9922 255.387 71.4363Z" stroke="black" stroke-linecap="round" stroke-linejoin="round"/>
<path d="M257.509 60.3878L252.574 54.0046V43.9517" stroke="black" stroke-linecap="round" stroke-linejoin="round"/>
</g>
<g opacity="0.3">
<path d="M582.196 392.724H579.581L579.131 389.743H575.954L575.504 392.724H573.128L575.771 376.26H579.553L582.196 392.724ZM576.291 387.508H578.78L577.529 379.17L576.291 387.508Z" fill="black"/>
<path d="M619.02 380.042V380.632C619.119 381.289 619.013 381.96 618.716 382.554C618.419 383.149 617.945 383.636 617.36 383.951C618.021 384.251 618.565 384.757 618.913 385.394C619.26 386.03 619.391 386.762 619.287 387.48V388.886C619.351 389.416 619.294 389.955 619.118 390.46C618.943 390.965 618.654 391.423 618.274 391.799C617.894 392.175 617.433 392.459 616.926 392.629C616.419 392.799 615.88 392.851 615.35 392.78H611.287V376.26H615.195C617.867 376.26 619.02 377.497 619.02 380.042ZM613.874 378.636V382.995H614.886C615.842 382.995 616.433 382.573 616.433 381.251V380.337C616.433 379.156 616.039 378.636 615.111 378.636H613.874ZM613.874 385.343V390.404H615.35C616.222 390.404 616.756 390.01 616.756 388.787V387.381C616.756 385.863 616.25 385.385 615.083 385.385L613.874 385.343Z" fill="black"/>
<path d="M656.307 386.65V388.829C656.307 391.473 654.999 392.977 652.454 392.977C649.909 392.977 648.588 391.473 648.588 388.829V380.267C648.588 377.624 649.909 376.119 652.454 376.119C654.999 376.119 656.307 377.624 656.307 380.267V381.87H653.86V380.042C653.86 378.861 653.34 378.425 652.525 378.425C651.709 378.425 651.119 378.861 651.119 380.042V388.942C651.119 390.123 651.639 390.545 652.525 390.545C653.41 390.545 653.86 390.123 653.86 388.942V386.65H656.307Z" fill="black"/>
<path d="M587.342 401.708H567.335V421.716H587.342V401.708Z" stroke="black" stroke-miterlimit="10"/>
<path d="M624.559 401.708H604.552V421.716H624.559V401.708Z" stroke="black" stroke-miterlimit="10"/>
<path d="M661.776 401.708H641.769V421.716H661.776V401.708Z" stroke="black" stroke-miterlimit="10"/>
</g>
<path d="M113.099 633.487H70.764" stroke="#263238" stroke-miterlimit="10"/>
<path d="M665.502 633.487H126.891" stroke="#263238" stroke-miterlimit="10"/>
<path d="M502.842 633.009L511.896 495.503L518.561 430.124L500.283 409.723L491.116 403.058C491.116 403.058 478.209 414.306 469.056 416.795C459.903 419.283 451.101 421.8 451.101 421.8C451.101 421.8 419.874 480.515 417.357 507.158C414.84 533.802 410.693 632.503 410.693 632.503L414.165 633.009H502.842Z" fill="#9E9E9E" stroke="#263238" stroke-miterlimit="10"/>
<path d="M459.917 519.644C459.917 519.644 458.356 518.842 461.477 510.8" stroke="#263238" stroke-miterlimit="10"/>
<path d="M456.247 420.394C457.8 431.503 458.659 442.697 458.82 453.913C458.82 453.913 468.198 450.159 475.692 437.041C479.832 430.001 483.396 422.637 486.349 415.023L456.247 420.394Z" fill="#263238" stroke="#263238" stroke-miterlimit="10"/>
<path d="M502.842 633.01L510.983 509.38C502.996 513.457 487.235 520.192 469.843 520.487C449.006 520.839 423.206 504.656 423.206 504.656L417.399 506.933C417.399 507.004 417.399 507.088 417.399 507.158C414.897 533.872 410.735 632.503 410.735 632.503L414.208 633.01H502.842Z" fill="white" stroke="#263238" stroke-miterlimit="10"/>
<path d="M489.288 563.806C489.288 595.652 490.385 626.289 490.694 632.981H552.066C552.909 623.055 558.196 561.275 560.91 539.131C563.876 514.934 583.335 478.912 583.335 466.019C583.335 453.126 587.286 455.164 569.514 445.786C551.743 436.408 512.543 416.162 507.116 413.687C501.689 411.213 495.756 405.251 495.756 405.251C495.756 405.251 497.724 417.596 497.162 451.157C496.599 484.719 489.288 527.798 489.288 563.806Z" fill="#6A9C89"/>
<g opacity="0.2">
<path d="M495.756 405.378C496.488 411.219 496.91 417.095 497.021 422.981V406.573C496.234 405.856 495.756 405.378 495.756 405.378Z" fill="black"/>
<path d="M576.46 485.731V489.949C576.938 488.67 577.416 487.432 577.866 486.209V485.703H578.049C578.232 485.239 578.4 484.761 578.569 484.297H577.866V466.792H583.307C583.307 466.581 583.307 466.356 583.307 466.145C583.307 465.935 583.307 465.639 583.307 465.386H577.866V450.398C577.43 450.131 576.966 449.878 576.46 449.597V465.386H561.697V447.811H573.114L570.47 446.405H561.697V441.765L560.291 441.02V446.363H545.528V433.343L544.122 432.612V446.363H529.359V428.83H536.712L533.985 427.424H529.359V425.048L527.953 424.317V427.424H513.19V416.809C512.698 416.556 512.234 416.317 511.784 416.106V427.424H497.162C497.162 427.888 497.162 428.352 497.162 428.83H511.784V446.405H497.288C497.288 446.869 497.288 447.333 497.288 447.811H511.784V465.386H497.021V458.708C496.74 465.569 496.234 472.768 495.615 480.093V484.311H495.249L495.123 485.717H495.615V503.348H493.506L493.365 504.754H495.685V522.329H491.692L491.566 523.735H495.685V541.31H490.202L490.118 542.716H495.742V560.291H489.513C489.513 560.769 489.513 561.233 489.513 561.697H495.756V579.272H489.555C489.555 579.75 489.555 580.214 489.555 580.678H495.742V598.253H489.836C489.836 598.731 489.836 599.195 489.836 599.659H495.713V633.052H497.119V599.617H511.784V633.01H513.19V599.617H527.953V633.01H529.359V599.617H544.122V633.01H545.528V599.617H554.99C554.99 599.153 554.99 598.689 555.117 598.211H545.528V580.678H556.776C556.776 580.214 556.874 579.75 556.917 579.272H545.528V561.697H558.519C558.519 561.219 558.604 560.769 558.66 560.291H545.528V542.716H560.291V544.586L560.91 539.201C561.106 537.627 561.374 535.996 561.697 534.322V523.735H564.326L564.748 522.329H561.697V504.754H570.836C571.019 504.29 571.188 503.812 571.37 503.348H561.697V485.773L576.46 485.731ZM561.697 466.792H576.46V484.367H561.697V466.792ZM511.784 598.211H497.021V580.678H511.784V598.211ZM511.784 579.23H497.021V561.655H511.784V579.23ZM511.784 560.249H497.021V542.716H511.784V560.249ZM511.784 541.268H497.021V523.693H511.784V541.268ZM511.784 522.287H497.021V504.754H511.784V522.287ZM511.784 503.306H497.021V485.731H511.784V503.306ZM511.784 484.325H497.021V466.792H511.784V484.325ZM527.953 598.211H513.19V580.678H527.953V598.211ZM527.953 579.23H513.19V561.655H527.953V579.23ZM527.953 560.249H513.19V542.716H527.953V560.249ZM527.953 541.268H513.19V523.693H527.953V541.268ZM527.953 522.287H513.19V504.754H527.953V522.287ZM527.953 503.306H513.19V485.731H527.953V503.306ZM527.953 484.325H513.19V466.792H527.953V484.325ZM527.953 465.344H513.19V447.769H527.953V465.344ZM527.953 446.363H513.19V428.83H527.953V446.363ZM544.122 598.211H529.359V580.678H544.122V598.211ZM544.122 579.23H529.359V561.655H544.122V579.23ZM544.122 560.249H529.359V542.716H544.122V560.249ZM544.122 541.268H529.359V523.693H544.122V541.268ZM544.122 522.287H529.359V504.754H544.122V522.287ZM544.122 503.306H529.359V485.731H544.122V503.306ZM544.122 484.325H529.359V466.792H544.122V484.325ZM544.122 465.344H529.359V447.769H544.122V465.344ZM560.291 541.268H545.528V523.693H560.291V541.268ZM560.291 522.287H545.528V504.754H560.291V522.287ZM560.291 503.306H545.528V485.731H560.291V503.306ZM560.291 484.325H545.528V466.792H560.291V484.325ZM560.291 465.344H545.528V447.769H560.291V465.344Z" fill="black"/>
</g>
<path d="M489.288 563.806C489.288 595.652 490.385 626.289 490.694 632.981H552.066C552.909 623.055 558.196 561.275 560.91 539.131C563.876 514.934 583.335 478.912 583.335 466.019C583.335 453.126 587.286 455.164 569.514 445.786C551.743 436.408 512.543 416.162 507.116 413.687C501.689 411.213 495.756 405.251 495.756 405.251C495.756 405.251 497.724 417.596 497.162 451.157C496.599 484.719 489.288 527.798 489.288 563.806Z" stroke="#263238" stroke-miterlimit="10"/>
<path d="M495.756 405.378C495.756 405.378 497.724 417.723 497.162 451.284C497.049 459.72 496.473 468.831 495.756 478.223C497.443 475.903 502.884 468.493 504.192 468.071C505.668 467.579 513.57 474.989 519.981 475.973C526.392 476.957 528.867 476.957 521.963 469.548C515.06 462.138 512.121 440.43 509.619 424.134C509.143 420.646 508.376 417.203 507.327 413.842H507.158C501.675 411.311 495.756 405.378 495.756 405.378Z" fill="#263238" stroke="#263238" stroke-miterlimit="10"/>
<path d="M536.262 558.07C540.804 556.003 544.375 554.217 544.375 554.217L546.048 567.124C546.048 567.124 521.471 577.951 507.735 578.78C493.998 579.61 492.747 580.031 492.747 580.031L493.155 567.546" stroke="#263238" stroke-miterlimit="10"/>
<path d="M523.96 563.117C526.477 562.274 529.429 561.078 532.312 559.827" stroke="#263238" stroke-miterlimit="10"/>
<path d="M497.724 566.295C504.911 566.112 512.078 565.459 519.18 564.34" stroke="#263238" stroke-miterlimit="10"/>
<path d="M546.048 567.124L546.878 577.121" stroke="#263238" stroke-miterlimit="10"/>
<path d="M357.672 633.009H426.735C426.89 627.596 428.886 558.801 430.236 523.693C431.642 487.137 456.444 431.684 456.444 431.684C456.444 431.684 459.762 423.867 456.247 420.352C452.732 416.837 444.296 418.243 437.969 423.164C431.642 428.085 373.293 453.393 369.778 456.908C366.263 460.423 366.966 472.374 365.56 486.434C364.154 500.494 340.955 597.508 340.955 597.508C340.955 597.508 334.628 598.914 332.519 600.32C330.41 601.726 330.41 605.944 330.41 605.944C330.41 605.944 333.222 606.647 341.658 610.865C349.419 614.746 356.576 630.493 357.672 633.009Z" fill="#6A9C89"/>
<path opacity="0.2" d="M447.108 447.769V454.953C447.586 453.66 448.05 452.409 448.514 451.199V447.769H449.836L450.384 446.363H448.514V428.83H457.372C457.47 428.394 457.583 427.916 457.653 427.424H448.514V418.594C448.05 418.665 447.586 418.735 447.108 418.847V427.424H432.345V426.468L430.939 427.185V427.424H430.461L427.649 428.83H430.939V446.405H416.176V434.313L414.77 434.974V446.363H400.007V441.878L398.601 442.538V446.363H390.432L387.451 447.769H398.601V465.386H383.838V449.498L382.432 450.173V465.386H367.669V461.843C366.878 466.964 366.409 472.129 366.263 477.309V484.339H365.757L365.63 485.745H366.263V503.348H362.481L362.186 504.754H366.263V522.329H358.375C358.277 522.793 358.164 523.271 358.066 523.735H366.263V541.31H354.101C353.989 541.788 353.89 542.252 353.778 542.716H366.263V560.291H351.5V552.558L350.094 558.632V560.221H349.728L349.405 561.627H350.094V579.272H345.285L344.948 580.678H350.094V598.253H338.157C336.724 598.636 335.315 599.106 333.939 599.659V607.308C334.361 607.476 334.825 607.673 335.345 607.912V599.659H350.094V619.343C350.586 620.046 351.05 620.749 351.5 621.466V599.673H366.263V633.065H367.669V599.617H382.432V633.009H383.838V599.617H398.601V633.009H400.007V599.617H414.77V633.009H416.176V599.617H427.719V598.211H416.176V580.678H428.31V579.272H416.176V561.697H428.914V560.291H416.176V542.716H429.547C429.547 542.252 429.547 541.774 429.547 541.31H416.176V523.735H430.236C430.236 523.271 430.236 522.807 430.306 522.329H416.176V504.754H430.939V515.144C431.305 512.149 431.769 509.07 432.345 505.949V504.754H432.57C432.654 504.29 432.753 503.826 432.837 503.348H432.345V485.773H437.055C437.182 485.309 437.322 484.845 437.449 484.367H432.345V466.792H442.89C443.059 466.328 443.213 465.85 443.368 465.386H432.345V447.811L447.108 447.769ZM432.345 428.83H447.108V446.405H432.345V428.83ZM366.263 598.253H351.5V580.678H366.263V598.253ZM366.263 579.272H351.5V561.697H366.263V579.272ZM382.432 598.253H367.669V580.678H382.432V598.253ZM382.432 579.272H367.669V561.697H382.432V579.272ZM382.432 560.291H367.669V542.716H382.432V560.291ZM382.432 541.31H367.669V523.735H382.432V541.31ZM382.432 522.329H367.669V504.754H382.432V522.329ZM382.432 503.348H367.669V485.773H382.432V503.348ZM382.432 484.367H367.669V466.792H382.432V484.367ZM398.601 598.253H383.838V580.678H398.601V598.253ZM398.601 579.272H383.838V561.697H398.601V579.272ZM398.601 560.291H383.838V542.716H398.601V560.291ZM398.601 541.31H383.838V523.735H398.601V541.31ZM398.601 522.329H383.838V504.754H398.601V522.329ZM398.601 503.348H383.838V485.773H398.601V503.348ZM398.601 484.367H383.838V466.792H398.601V484.367ZM414.77 598.253H400.007V580.678H414.77V598.253ZM414.77 579.272H400.007V561.697H414.77V579.272ZM414.77 560.291H400.007V542.716H414.77V560.291ZM414.77 541.31H400.007V523.735H414.77V541.31ZM414.77 522.329H400.007V504.754H414.77V522.329ZM414.77 503.348H400.007V485.773H414.77V503.348ZM414.77 484.367H400.007V466.792H414.77V484.367ZM414.77 465.386H400.007V447.811H414.77V465.386ZM430.939 503.348H416.176V485.773H430.939V503.348ZM430.939 484.367H416.176V466.792H430.939V484.367ZM430.939 465.386H416.176V447.811H430.939V465.386Z" fill="black"/>
<path d="M357.672 633.009H426.735C426.89 627.596 428.886 558.801 430.236 523.693C431.642 487.137 456.444 431.684 456.444 431.684C456.444 431.684 459.762 423.867 456.247 420.352C452.732 416.837 444.296 418.243 437.969 423.164C431.642 428.085 373.293 453.393 369.778 456.908C366.263 460.423 366.966 472.374 365.56 486.434C364.154 500.494 340.955 597.508 340.955 597.508C340.955 597.508 334.628 598.914 332.519 600.32C330.41 601.726 330.41 605.944 330.41 605.944C330.41 605.944 333.222 606.647 341.658 610.865C349.419 614.746 356.576 630.493 357.672 633.009Z" stroke="#263238" stroke-miterlimit="10"/>
<path d="M330.41 605.986C330.41 605.986 333.222 606.689 341.658 610.907C350.094 615.125 357.827 633.403 357.827 633.403H371.451C372.309 630.844 374.404 621.536 364.857 610.204C353.609 596.847 340.955 597.55 340.955 597.55C340.955 597.55 334.628 598.956 332.519 600.362C330.41 601.768 330.41 605.986 330.41 605.986Z" fill="#263238" stroke="#263238" stroke-miterlimit="10"/>
<path d="M447.755 418.679C444.732 426.679 437.575 444.774 431.642 453.393C423.909 464.641 409.849 473.78 414.77 477.998C419.691 482.216 433.751 468.859 433.751 468.859C433.751 468.859 437.266 478.701 437.969 481.513C438.007 481.64 438.069 481.76 438.152 481.864C443.227 464.784 449.331 448.027 456.43 431.684C456.43 431.684 459.748 423.867 456.233 420.352C454.419 418.524 451.326 418.046 447.755 418.679Z" fill="#263238" stroke="#263238" stroke-miterlimit="10"/>
<path d="M396.408 486.546C396.811 483.947 397.074 481.328 397.195 478.701" stroke="#263238" stroke-miterlimit="10"/>
<path d="M385.244 634.767C385.244 634.767 387.353 589.775 387.353 563.764C387.353 545.022 392.457 513.499 395.325 494.195" stroke="#263238" stroke-miterlimit="10"/>
<path d="M388.759 553.964C388.759 553.964 400.007 557.479 405.631 558.182L422.503 560.291L421.224 576.221C421.224 576.221 420.394 575.757 407.74 571.539C395.086 567.321 387.353 563.806 387.353 563.806" stroke="#263238" stroke-miterlimit="10"/>
<path d="M421.224 576.179C421.224 576.179 420.394 607.392 420.394 611.61C420.394 615.828 407.74 613.016 407.74 613.016" stroke="#263238" stroke-miterlimit="10"/>
<path d="M431.319 403.831C431.319 403.831 444.577 422.897 456.444 431.684C468.31 440.472 478.434 428.169 486.349 414.981C494.265 401.793 499.538 392.119 503.489 380.689C507.439 369.258 503.489 350.361 487.671 335.415C471.854 320.47 434.904 298.48 425.681 309.911C416.457 321.341 407.656 346.467 413.8 367.936C417.47 380.843 423.402 392.997 431.319 403.831Z" fill="#9E9E9E" stroke="#263238" stroke-miterlimit="10"/>
<path d="M425.737 362.819C430.74 361.319 436.073 361.319 441.076 362.819" stroke="#263238" stroke-width="2" stroke-miterlimit="10" stroke-linecap="round"/>
<path d="M437.083 374.586C437.505 376.864 436.971 378.875 435.888 379.071C434.805 379.268 433.61 377.581 433.189 375.289C432.767 372.998 433.301 371.001 434.384 370.804C435.466 370.607 436.661 372.295 437.083 374.586Z" fill="#263238"/>
<path d="M476.198 375.191C476.606 377.469 476.072 379.409 475.003 379.676C473.934 379.944 472.725 378.186 472.304 375.894C471.882 373.603 472.416 371.606 473.499 371.409C474.581 371.212 475.776 372.9 476.198 375.191Z" fill="#263238"/>
<path d="M447.22 406.194C452.301 407.944 457.673 408.689 463.038 408.387C472.275 407.951 480.191 401.357 480.191 401.357" stroke="#263238" stroke-miterlimit="10"/>
<path d="M427.044 319.626C427.044 319.626 446.574 364.168 449.02 365.391C451.467 366.615 456.345 351.964 456.345 351.964C456.345 351.964 463.052 364.154 471.01 367.824C478.968 371.493 481.386 365.391 481.386 365.391C485.373 367.637 489.245 370.082 492.986 372.717L496.037 375.149L499.088 386.13C499.088 386.13 489.935 416.035 492.986 419.705C496.037 423.375 513.12 418.482 513.12 418.482C513.12 418.482 508.902 424.584 514.343 424.584C519.784 424.584 529.598 425.807 543.63 406.882C557.662 387.958 558.885 357.461 558.885 357.461C558.885 357.461 565.592 364.773 566.21 355.62C566.829 346.467 558.28 331.211 558.28 331.211C558.28 331.211 571.694 344.639 570.484 330.607C569.275 316.575 561.331 300.701 558.28 297.046C555.229 293.39 536.909 282.986 536.909 282.986C536.909 282.986 544.234 281.762 538.751 273.214C533.268 264.665 513.12 262.233 505.794 262.233C498.469 262.233 483.214 264.68 483.214 264.68C483.214 264.68 492.986 245.755 482.61 244.532C472.233 243.308 453.927 263.456 453.927 263.456C453.927 263.456 435.649 248.806 430.124 251.857C424.598 254.908 428.296 259.182 428.296 259.182C428.296 259.182 404.506 261.01 397.786 271.386C391.065 281.762 399.009 287.864 399.009 287.864C399.009 287.864 356.294 317.151 363.001 328.132C369.708 339.113 381.926 328.751 381.926 328.751C381.926 328.751 364.829 372.688 367.275 375.739C369.722 378.79 381.335 374.516 381.335 374.516C381.335 374.516 380.731 409.905 389.884 413.575C399.037 417.245 400.865 410.524 400.865 410.524C400.865 410.524 405.743 415.403 416.738 416.007C427.733 416.612 431.375 403.803 431.375 403.803C431.375 403.803 419.171 375.121 419.789 351.331C420.408 327.542 427.044 319.626 427.044 319.626Z" fill="#263238" stroke="#263238" stroke-miterlimit="10"/>
<path d="M451.621 371.015C451.621 371.015 447.22 393.877 450.735 398.713C454.25 403.55 466.567 398.713 467.439 396.084" fill="#9E9E9E"/>
<path d="M451.621 371.015C451.621 371.015 447.22 393.877 450.735 398.713C454.25 403.55 466.567 398.713 467.439 396.084" stroke="#263238" stroke-miterlimit="10"/>
<path d="M433.371 385.089C442.961 385.089 450.735 379.38 450.735 372.337C450.735 365.294 442.961 359.584 433.371 359.584C423.781 359.584 416.007 365.294 416.007 372.337C416.007 379.38 423.781 385.089 433.371 385.089Z" stroke="#263238" stroke-miterlimit="10"/>
<path d="M475.13 384.218C484.719 384.218 492.494 378.508 492.494 371.465C492.494 364.422 484.719 358.713 475.13 358.713C465.54 358.713 457.765 364.422 457.765 371.465C457.765 378.508 465.54 384.218 475.13 384.218Z" stroke="#263238" stroke-miterlimit="10"/>
<path d="M451.621 371.016C451.621 371.016 455.136 368.386 457.765 371.465" stroke="#263238" stroke-miterlimit="10"/>
<path d="M306.944 614.295C306.944 614.295 329.018 608.067 335.809 606.942C342.6 605.817 356.196 618.26 358.46 625.051C360.723 631.842 357.827 633.361 357.827 633.361L312.596 631.856L306.944 614.295Z" fill="#9E9E9E" stroke="#263238" stroke-miterlimit="10"/>
<path d="M314.944 612.102C314.944 612.102 331.605 618.345 335.767 620.848C339.929 623.35 338.677 628.342 336.189 630.83C333.187 633.34 329.605 635.06 325.77 635.836C321.888 636.057 317.997 636.057 314.114 635.836C309.123 635.414 304.54 636.257 300.378 636.257C296.216 636.257 283.717 635.006 283.717 635.006L279.963 632.503C279.963 632.503 272.933 634.584 267.477 636.721C262.022 638.858 263.723 634.219 267.885 630.886C272.047 627.554 282.465 619.231 284.139 618.401C285.812 617.572 307.042 611.371 307.042 611.371L314.944 612.102Z" fill="#9E9E9E" stroke="#263238" stroke-miterlimit="10"/>
<path d="M321.187 613.761C321.187 613.761 310.346 608.77 307.436 608.77C304.526 608.77 283.703 615.8 280.792 617.923C277.882 620.046 274.957 639.997 277.038 641.249C279.119 642.5 280.792 638.746 281.256 636.257C281.72 633.769 287.513 620.426 287.513 620.426L283.295 641.67C283.295 641.67 284.968 644.989 286.627 642.078C288.286 639.168 298.705 619.174 299.534 617.923C300.625 616.762 301.892 615.78 303.288 615.013C303.288 615.013 301.207 624.18 299.534 632.925C297.861 641.67 299.126 644.173 301.629 644.581C304.132 644.989 305.369 639.168 306.62 636.257C307.872 633.347 313.285 616.672 313.285 616.672" fill="#9E9E9E"/>
<path d="M321.187 613.761C321.187 613.761 310.346 608.77 307.436 608.77C304.526 608.77 283.703 615.8 280.792 617.923C277.882 620.046 274.957 639.997 277.038 641.249C279.119 642.5 280.792 638.746 281.256 636.257C281.72 633.769 287.513 620.426 287.513 620.426L283.295 641.67C283.295 641.67 284.968 644.989 286.627 642.078C288.286 639.168 298.705 619.174 299.534 617.923C300.625 616.762 301.892 615.78 303.288 615.013C303.288 615.013 301.207 624.18 299.534 632.925C297.861 641.67 299.126 644.173 301.629 644.581C304.132 644.989 305.369 639.168 306.62 636.257C307.872 633.347 313.285 616.672 313.285 616.672" stroke="#263238" stroke-miterlimit="10"/>
<path d="M333.222 622.099C333.222 622.099 320.737 635.006 319.064 637.916C317.39 640.827 317.404 641.248 321.988 641.248C326.572 641.248 340.73 632.081 341.967 630.83C343.205 629.579 342.811 625.839 339.886 623.336C338.955 622.612 337.864 622.122 336.705 621.907C335.545 621.692 334.351 621.758 333.222 622.099Z" fill="#9E9E9E" stroke="#263238" stroke-miterlimit="10"/>
<path d="M411.199 620.665C411.199 620.665 394.538 626.05 390.446 629.101C386.355 632.152 380.45 635.512 381.729 636.538C383.008 637.565 387.114 636.538 388.393 635.512C389.673 634.486 395.564 633.459 395.564 633.459C395.564 633.459 402.482 629.354 407.867 626.036C413.251 622.717 417.343 619.118 411.199 620.665Z" fill="#9E9E9E" stroke="#263238" stroke-miterlimit="10"/>
<path d="M503.165 592.46C503.165 592.46 456.767 600.896 439.98 606.788C423.192 612.679 416.513 616.784 408.12 622.718C399.726 628.651 382.713 639.857 385.244 641.825C387.775 643.793 396.59 636.89 398.081 635.414C399.571 633.937 410.411 629.494 410.411 629.494L417.666 625.783C417.666 625.783 406.742 639.238 402.805 642.655C398.868 646.071 401.526 648.208 404.492 647.224C407.459 646.24 413.055 640.349 413.055 640.349L431.094 628.482C431.094 628.482 423.684 638.858 420.225 641.811C416.767 644.764 424.176 647.252 425.667 644.778C427.157 642.303 434.552 635.892 434.552 635.892C434.552 635.892 446.883 629.48 449.85 627.006C452.816 624.531 460.212 617.628 460.212 617.628L515.496 622.071C515.496 622.071 518.955 620.102 516.986 608.742C515.018 597.381 503.165 592.46 503.165 592.46Z" fill="#9E9E9E" stroke="#263238" stroke-miterlimit="10"/>
<path d="M540.677 505.092L567.827 572.242L523.89 587.539L536.234 623.575C536.234 623.575 567.785 623.66 592.474 622.169C617.164 620.679 634.486 605.789 630.535 588.032C626.584 570.274 611.779 544.586 599.926 513.978C588.074 483.369 591.743 465.119 586.316 455.741C580.889 446.363 565.578 443.888 565.578 443.888L557.142 442.482" fill="#6A9C89"/>
<path opacity="0.2" d="M626.373 606.703V599.673H630.043C630.197 599.209 630.324 598.745 630.436 598.267H626.373V580.678H628.482C628.327 580.228 628.159 579.75 628.004 579.272H626.373V574.984C625.923 573.817 625.459 572.622 624.967 571.427V579.272H610.204V561.697H620.805C620.594 561.233 620.398 560.769 620.187 560.291H610.204V542.716H612.172C611.947 542.252 611.737 541.788 611.526 541.31H610.204V538.372C609.74 537.331 609.262 536.291 608.798 535.236V541.31H594.035V523.735H603.877C603.68 523.271 603.483 522.807 603.301 522.329H594.035V504.754H596.664C596.51 504.29 596.369 503.812 596.228 503.348H594.035V495.334C593.501 493.112 593.037 490.989 592.629 488.951V503.348H577.866V485.773H592.039L591.785 484.367H577.866V466.792H589.409L589.198 465.386H577.866V448.149C576.633 447.487 575.366 446.891 574.07 446.363H561.697V443.214L560.291 442.96V446.363H556.143L555.764 447.769H560.291V465.386H551.152L550.786 466.792H560.305V484.367H546.147L545.767 485.773H560.291V503.348H545.528V486.673L544.122 492.002V503.25H541.141L540.776 504.656H544.122V513.556L545.528 517.029V504.754H560.291V522.329H547.637L548.199 523.735H560.291V541.31H555.37L555.947 542.716H560.361V553.641L561.767 557.114V542.716H576.46V560.291H562.977L563.553 561.697H576.46V579.272H561.697V574.407L560.291 574.9V579.272H547.721L543.672 580.678H544.122V598.253H529.359V585.599L527.953 586.091V598.183H527.545L529.359 603.469V599.589H544.122V623.491H545.528V599.589H560.291V623.308H561.697V599.617H576.46V622.858H577.866V599.617H592.629V622.113L594.035 622.001V599.617H608.798V618.907L610.204 618.373V599.617H624.967V608.447C625.459 607.87 625.937 607.294 626.373 606.703ZM560.291 598.267H545.528V580.678H560.291V598.267ZM576.46 598.267H561.697V580.678H576.46V598.267ZM576.46 541.324H561.697V523.749H576.46V541.324ZM576.46 522.343H561.697V504.754H576.46V522.343ZM576.46 503.362H561.697V485.787H576.46V503.362ZM576.46 484.381H561.697V466.792H576.46V484.381ZM576.46 465.4H561.697V447.825H576.46V465.4ZM592.629 598.267H577.866V580.678H592.629V598.267ZM592.629 579.286H577.866V561.711H592.629V579.286ZM592.629 560.305H577.866V542.716H592.629V560.305ZM592.629 541.324H577.866V523.749H592.629V541.324ZM592.629 522.343H577.866V504.754H592.629V522.343ZM608.798 598.267H594.035V580.678H608.798V598.267ZM608.798 579.286H594.035V561.711H608.798V579.286ZM608.798 560.305H594.035V542.716H608.798V560.305ZM610.204 598.267V580.678H624.967V598.253L610.204 598.267Z" fill="#263238"/>
<path d="M540.677 505.092L567.827 572.242L523.89 587.539L536.234 623.575C536.234 623.575 567.785 623.66 592.474 622.169C617.164 620.679 634.486 605.789 630.535 588.032C626.584 570.274 611.779 544.586 599.926 513.978C588.074 483.369 591.743 465.119 586.316 455.741C580.889 446.363 565.578 443.888 565.578 443.888L557.142 442.482" stroke="#263238" stroke-miterlimit="10"/>
<path d="M594.26 565.409C585.302 567.067 576.47 569.346 567.827 572.228C567.827 572.228 586.583 559.883 596.945 558.899" stroke="#263238" stroke-miterlimit="10"/>
<path d="M606.83 564.818C604.884 564.539 602.913 564.473 600.953 564.621" stroke="#263238" stroke-miterlimit="10"/>
<path d="M536.726 582.084C536.726 582.084 546.709 591.631 549.662 599.026C552.614 606.422 551.532 626.513 549.563 628.482C547.595 630.45 510.856 630.211 504.81 622.661C503.236 620.693 514.02 616.151 508.592 605.283C503.165 594.414 500.691 593.444 500.691 593.444C500.691 593.444 496.248 590.97 504.642 585.543C513.035 580.115 532.283 576.179 536.726 582.084Z" fill="#263238" stroke="#263238" stroke-miterlimit="10"/>
<path d="M624.25 658.205H587.806L583.251 586.162H628.805L624.25 658.205Z" fill="#263238" stroke="#263238" stroke-linejoin="round"/>
<path d="M630.83 586.274H581.24V596.763H630.83V586.274Z" fill="white" stroke="#263238" stroke-linejoin="round"/>
<path d="M630.83 586.668H581.24L586.19 580.453H625.867L630.83 586.668Z" fill="white" stroke="#263238" stroke-linejoin="round"/>
<path d="M625.586 637.073L627.399 608.376H584.657L586.471 637.073H625.586Z" fill="white" stroke="#263238" stroke-linejoin="round"/>
<path d="M414.236 662.999L459.143 651.133V657.207L414.236 669.79V662.999Z" fill="#263238" stroke="#263238" stroke-linejoin="round"/>
<path d="M459.143 651.133H224.355L178.97 662.999H414.236L459.143 651.133Z" fill="white" stroke="#263238" stroke-linejoin="round"/>
<path d="M414.236 527.32H178.97V669.79H414.236V527.32Z" fill="white" stroke="#263238" stroke-linejoin="round"/>
<path d="M414.236 547.932C363.057 550.365 332.575 597.536 287.288 629.143C246.008 657.966 195.026 662.887 179.026 663.66V669.79H414.236V547.932Z" fill="#263238" stroke="#263238" stroke-linejoin="round"/>
<path d="M414.236 663H178.97V669.791H414.236V663Z" fill="white" stroke="#263238" stroke-miterlimit="10"/>
<path d="M109.316 615.997C109.316 615.997 89.7169 584.643 105.45 566.997C121.183 549.352 146.604 557.844 151.848 574.182C157.092 590.52 145.971 617.965 145.971 617.965L109.316 615.997Z" fill="#6A9C89" stroke="#263238" stroke-linecap="round" stroke-linejoin="round"/>
<path d="M109.963 580.059C106.701 580.059 94.2864 575.49 90.3636 569.613C86.4409 563.735 85.766 550.66 96.9015 550.66C108.037 550.66 111.932 570.259 111.932 570.259L112.578 577.444" fill="#6A9C89"/>
<path d="M109.963 580.059C106.701 580.059 94.2864 575.49 90.3636 569.613C86.4409 563.735 85.766 550.66 96.9015 550.66C108.037 550.66 111.932 570.259 111.932 570.259L112.578 577.444" stroke="#263238" stroke-linecap="round" stroke-linejoin="round"/>
<path d="M120.016 567.855C117.092 566.449 108.023 556.776 107.137 549.76C106.251 542.744 111.51 530.765 121.45 535.7C131.391 540.635 126.146 559.953 126.146 559.953L123.517 566.674" fill="#6A9C89"/>
<path d="M120.016 567.855C117.092 566.449 108.023 556.776 107.137 549.76C106.251 542.744 111.51 530.765 121.45 535.7C131.391 540.635 126.146 559.953 126.146 559.953L123.517 566.674" stroke="#263238" stroke-linecap="round" stroke-linejoin="round"/>
<path d="M131.883 571.145C130.252 568.333 128.058 555.271 131.208 548.944C134.357 542.617 145.38 535.559 150.892 545.204C156.403 554.849 141.345 567.982 141.345 567.982L135.426 572.115" fill="#6A9C89"/>
<path d="M131.883 571.145C130.252 568.333 128.058 555.271 131.208 548.944C134.357 542.617 145.38 535.559 150.892 545.204C156.403 554.849 141.345 567.982 141.345 567.982L135.426 572.115" stroke="#263238" stroke-linecap="round" stroke-linejoin="round"/>
<path d="M135.777 594.569C135.243 591.335 137.69 578.344 142.807 573.479C147.925 568.614 160.734 565.816 162.576 576.769C164.418 587.722 145.704 594.85 145.704 594.85L138.674 596.678" fill="#6A9C89"/>
<path d="M135.777 594.569C135.243 591.335 137.69 578.344 142.807 573.479C147.925 568.614 160.734 565.816 162.576 576.769C164.418 587.722 145.704 594.85 145.704 594.85L138.674 596.678" stroke="#263238" stroke-linecap="round" stroke-linejoin="round"/>
<path d="M91.7977 561.725L94.0052 565.198" stroke="white" stroke-linecap="round" stroke-linejoin="round"/>
<path d="M98.1107 570.245L101.569 573.071" stroke="white" stroke-linecap="round" stroke-linejoin="round"/>
<path d="M94.3285 555.103L97.7873 560.15" stroke="white" stroke-linecap="round" stroke-linejoin="round"/>
<path d="M102.526 564.256L106.308 571.187" stroke="white" stroke-linecap="round" stroke-linejoin="round"/>
<path d="M111.341 547.538L112.607 551.32" stroke="white" stroke-linecap="round" stroke-linejoin="round"/>
<path d="M115.756 558.252L117.963 561.415" stroke="white" stroke-linecap="round" stroke-linejoin="round"/>
<path d="M114.814 539.974L117.654 546.273" stroke="white" stroke-linecap="round" stroke-linejoin="round"/>
<path d="M103.777 584.432L104.733 590.098" stroke="white" stroke-linecap="round" stroke-linejoin="round"/>
<path d="M106.617 595.455L107.882 600.193" stroke="white" stroke-linecap="round" stroke-linejoin="round"/>
<path d="M109.766 584.741L111.032 591.04" stroke="white" stroke-linecap="round" stroke-linejoin="round"/>
<path d="M113.872 595.455L114.814 600.193" stroke="white" stroke-linecap="round" stroke-linejoin="round"/>
<path d="M116.079 576.544L117.963 585.374" stroke="white" stroke-linecap="round" stroke-linejoin="round"/>
<path d="M120.494 593.88L120.804 597.985" stroke="white" stroke-linecap="round" stroke-linejoin="round"/>
<path d="M123.953 573.704L125.528 581.901" stroke="white" stroke-linecap="round" stroke-linejoin="round"/>
<path d="M125.528 590.421L126.16 598.928" stroke="white" stroke-linecap="round" stroke-linejoin="round"/>
<path d="M133.106 576.854V583.799" stroke="white" stroke-linecap="round" stroke-linejoin="round"/>
<path d="M132.15 592.629L132.473 597.986" stroke="white" stroke-linecap="round" stroke-linejoin="round"/>
<path d="M140.98 544.065L139.405 547.862" stroke="white" stroke-linecap="round" stroke-linejoin="round"/>
<path d="M138.772 552.263L137.197 557.634" stroke="white" stroke-linecap="round" stroke-linejoin="round"/>
<path d="M147.911 551.32L145.394 556.368" stroke="white" stroke-linecap="round" stroke-linejoin="round"/>
<path d="M140.038 562.048L137.197 565.198" stroke="white" stroke-linecap="round" stroke-linejoin="round"/>
<path d="M134.048 551.011L133.106 555.103" stroke="white" stroke-linecap="round" stroke-linejoin="round"/>
<path d="M147.911 573.704L144.452 579.384" stroke="white" stroke-linecap="round" stroke-linejoin="round"/>
<path d="M142.245 582.843L140.347 587.89" stroke="white" stroke-linecap="round" stroke-linejoin="round"/>
<path d="M145.085 590.421L150.751 587.258" stroke="white" stroke-linecap="round" stroke-linejoin="round"/>
<path d="M154.224 573.704L151.384 578.442" stroke="white" stroke-linecap="round" stroke-linejoin="round"/>
<path d="M157.064 579.061L153.282 581.901" stroke="white" stroke-linecap="round" stroke-linejoin="round"/>
<path d="M152.987 605.058H99.3901V658.654H152.987V605.058Z" fill="#263238" stroke="#263238" stroke-linecap="round" stroke-linejoin="round"/>
</svg>
